<svg xmlns="http://www.w3.org/2000/svg" width="10" height="18" fill="none" viewBox="0 0 10 18">
  <path fill="#000" d="M.504 12.363c-.016-.039-.024-.18-.024-.422v-.914l.024-1.23C.52 9.336.53 8.87.539 8.402L.586 7.02A99.8 99.8 0 0 0 .62 5.813c.016-.352.027-.637.035-.856.008-.227.016-.348.024-.363.007-.032.043-.11.105-.235.063-.125.133-.254.211-.386a2.92 2.92 0 0 1 .258-.364c.086-.109.16-.16.223-.152.023.008.043.164.058.469.024.297.043.68.059 1.148.023.469.039.989.047 1.559.015.562.027 1.113.035 1.652.015.531.027 1.016.035 1.453.008.43.016.746.023.95.25.023.5.042.75.058.258.016.489.035.692.059.203.015.367.03.492.047a.965.965 0 0 1 .21.035.961.961 0 0 1 .095.222c.047.11.09.23.129.364.039.125.066.242.082.351.023.11.02.176-.012.2a32.36 32.36 0 0 1-2.086.328c-.492.054-.856.082-1.09.082-.273 0-.437-.024-.492-.07ZM6.86 10.7a71.988 71.988 0 0 1 .738 1.57c.164.335.324.683.48 1.042a22.854 22.854 0 0 1 .727 1.735c.07.203.093.316.07.34-.047.039-.117.058-.21.058-.087 0-.177-.011-.27-.035a1.714 1.714 0 0 1-.258-.094.415.415 0 0 1-.164-.129c-.313-.468-.59-.898-.832-1.289l-.633-1.02a30.153 30.153 0 0 1-.54-.901 5.074 5.074 0 0 1-.175.257c-.055.079-.11.153-.164.223-.024.398-.047.773-.07 1.125-.024.352-.047.66-.07.926a5.428 5.428 0 0 1-.083.62c-.023.157-.047.235-.07.235-.063.016-.137-.008-.223-.07a1.66 1.66 0 0 1-.234-.234 2.324 2.324 0 0 1-.188-.293 1.166 1.166 0 0 1-.105-.282c-.047-.78-.086-1.48-.117-2.097a93.284 93.284 0 0 1-.117-3.785c0-.586.02-.989.058-1.207.031-.165.11-.32.235-.47.125-.155.257-.288.398-.398a1.93 1.93 0 0 1 .41-.257c.125-.063.207-.082.246-.06.031.024.055.173.07.446.016.266.02.606.012 1.02a123.003 123.003 0 0 1-.093 2.93c.273-.532.55-1.055.832-1.57.289-.516.554-.977.796-1.384.243-.406.45-.734.622-.984.171-.258.28-.387.328-.387.046 0 .105.051.175.153.07.093.133.218.188.375.062.156.105.324.129.503.023.18.008.352-.047.516a2.837 2.837 0 0 1-.223.445c-.117.196-.261.422-.433.68A198.602 198.602 0 0 1 6.86 10.7Z"/>
</svg>
